<?xml version="1.0" encoding="us-ascii" standalone="no"?><svg xmlns="http://www.w3.org/2000/svg" xmlns:xlink="http://www.w3.org/1999/xlink" contentStyleType="text/css" height="495px" preserveAspectRatio="none" style="width:1532px;height:495px;background:#FFFFFF;" version="1.1" viewBox="0 0 1532 495" width="1532px" zoomAndPan="magnify"><defs/><g><!--class BmiCalculator--><g id="elem_BmiCalculator"><rect codeLine="1" fill="#F1F1F1" height="292.4531" id="BmiCalculator" rx="2.5" ry="2.5" style="stroke:#181818;stroke-width:0.5;" width="450" x="808.5" y="7"/><ellipse cx="979.25" cy="23" fill="#ADD1B2" rx="11" ry="11" style="stroke:#181818;stroke-width:1.0;"/><path d="M981.5938,18.6719 C980.6563,18.2344 980.0625,18.0938 979.1875,18.0938 C976.5625,18.0938 974.5625,20.1719 974.5625,22.8906 L974.5625,24.0156 C974.5625,26.5938 976.6719,28.4844 979.5625,28.4844 C980.7813,28.4844 981.9375,28.1875 982.6875,27.6406 C983.2656,27.2344 983.5938,26.7813 983.5938,26.3906 C983.5938,25.9375 983.2031,25.5469 982.7344,25.5469 C982.5156,25.5469 982.3125,25.625 982.125,25.8125 C981.6719,26.2969 981.6719,26.2969 981.4844,26.3906 C981.0625,26.6563 980.375,26.7813 979.6094,26.7813 C977.5625,26.7813 976.2656,25.6875 976.2656,23.9844 L976.2656,22.8906 C976.2656,21.1094 977.5156,19.7969 979.25,19.7969 C979.8281,19.7969 980.4375,19.9531 980.9063,20.2031 C981.3906,20.4844 981.5625,20.7031 981.6563,21.1094 C981.7188,21.5156 981.75,21.6406 981.8906,21.7656 C982.0313,21.9063 982.2656,22.0156 982.4844,22.0156 C982.75,22.0156 983.0156,21.875 983.1875,21.6563 C983.2969,21.5 983.3281,21.3125 983.3281,20.8906 L983.3281,19.4688 C983.3281,19.0313 983.3125,18.9063 983.2188,18.75 C983.0625,18.4844 982.7813,18.3438 982.4844,18.3438 C982.1875,18.3438 981.9844,18.4375 981.7656,18.75 L981.5938,18.6719 Z " fill="#000000"/><text fill="#000000" font-family="sans-serif" font-size="14" lengthAdjust="spacing" textLength="100" x="999.75" y="27.8467">BmiCalculator</text><line style="stroke:#181818;stroke-width:0.5;" x1="809.5" x2="1257.5" y1="39" y2="39"/><rect fill="none" height="6" style="stroke:#C82930;stroke-width:1.0;" width="6" x="816.5" y="49.6484"/><text fill="#000000" font-family="sans-serif" font-size="14" lengthAdjust="spacing" textLength="117" x="828.5" y="55.9951">weight_kg: float</text><rect fill="none" height="6" style="stroke:#C82930;stroke-width:1.0;" width="6" x="816.5" y="65.9453"/><text fill="#000000" font-family="sans-serif" font-size="14" lengthAdjust="spacing" textLength="111" x="828.5" y="72.292">height_m: float</text><rect fill="none" height="6" style="stroke:#C82930;stroke-width:1.0;" width="6" x="816.5" y="82.2422"/><text fill="#000000" font-family="sans-serif" font-size="14" lengthAdjust="spacing" textLength="120" x="828.5" y="88.5889">weight_lbs: float</text><rect fill="none" height="6" style="stroke:#C82930;stroke-width:1.0;" width="6" x="816.5" y="98.5391"/><text fill="#000000" font-family="sans-serif" font-size="14" lengthAdjust="spacing" textLength="110" x="828.5" y="104.8857">height_in: float</text><rect fill="none" height="6" style="stroke:#C82930;stroke-width:1.0;" width="6" x="816.5" y="114.8359"/><text fill="#000000" font-family="sans-serif" font-size="14" lengthAdjust="spacing" textLength="131" x="828.5" y="121.1826">result_label: Label</text><line style="stroke:#181818;stroke-width:0.5;" x1="809.5" x2="1257.5" y1="128.4844" y2="128.4844"/><ellipse cx="819.5" cy="142.1328" fill="#84BE84" rx="3" ry="3" style="stroke:#038048;stroke-width:1.0;"/><text fill="#000000" font-family="sans-serif" font-size="14" lengthAdjust="spacing" textLength="123" x="828.5" y="145.4795">metrics_clicked()</text><ellipse cx="819.5" cy="158.4297" fill="#84BE84" rx="3" ry="3" style="stroke:#038048;stroke-width:1.0;"/><text fill="#000000" font-family="sans-serif" font-size="14" lengthAdjust="spacing" textLength="127" x="828.5" y="161.7764">imperial_clicked()</text><ellipse cx="819.5" cy="174.7266" fill="#84BE84" rx="3" ry="3" style="stroke:#038048;stroke-width:1.0;"/><text fill="#000000" font-family="sans-serif" font-size="14" lengthAdjust="spacing" textLength="106" x="828.5" y="178.0732">reset_clicked()</text><ellipse cx="819.5" cy="191.0234" fill="#84BE84" rx="3" ry="3" style="stroke:#038048;stroke-width:1.0;"/><text fill="#000000" font-family="sans-serif" font-size="14" lengthAdjust="spacing" textLength="96" x="828.5" y="194.3701">quit_clicked()</text><ellipse cx="819.5" cy="207.3203" fill="#84BE84" rx="3" ry="3" style="stroke:#038048;stroke-width:1.0;"/><text fill="#000000" font-family="sans-serif" font-size="14" lengthAdjust="spacing" textLength="171" x="828.5" y="210.667">calculate_metrics_bmi()</text><ellipse cx="819.5" cy="223.6172" fill="#84BE84" rx="3" ry="3" style="stroke:#038048;stroke-width:1.0;"/><text fill="#000000" font-family="sans-serif" font-size="14" lengthAdjust="spacing" textLength="175" x="828.5" y="226.9639">calculate_imperial_bmi()</text><ellipse cx="819.5" cy="239.9141" fill="#84BE84" rx="3" ry="3" style="stroke:#038048;stroke-width:1.0;"/><text fill="#000000" font-family="sans-serif" font-size="14" lengthAdjust="spacing" textLength="179" x="828.5" y="243.2607">display_result(bmi: float)</text><ellipse cx="819.5" cy="256.2109" fill="#84BE84" rx="3" ry="3" style="stroke:#038048;stroke-width:1.0;"/><text fill="#000000" font-family="sans-serif" font-size="14" lengthAdjust="spacing" textLength="168" x="828.5" y="259.5576">move_arrow(bmi: float)</text><ellipse cx="819.5" cy="272.5078" fill="#84BE84" rx="3" ry="3" style="stroke:#038048;stroke-width:1.0;"/><text fill="#000000" font-family="sans-serif" font-size="14" lengthAdjust="spacing" textLength="412" x="828.5" y="275.8545">Bmi_Calculator_metrics(weight: float, height: float): float</text><ellipse cx="819.5" cy="288.8047" fill="#84BE84" rx="3" ry="3" style="stroke:#038048;stroke-width:1.0;"/><text fill="#000000" font-family="sans-serif" font-size="14" lengthAdjust="spacing" textLength="424" x="828.5" y="292.1514">Bmi_Calculator_Imperial(weightI: float, heightI: float): float</text></g><!--class Label--><g id="elem_Label"><rect codeLine="20" fill="#F1F1F1" height="96.8906" id="Label" rx="2.5" ry="2.5" style="stroke:#181818;stroke-width:0.5;" width="141" x="7" y="375"/><ellipse cx="53.75" cy="391" fill="#ADD1B2" rx="11" ry="11" style="stroke:#181818;stroke-width:1.0;"/><path d="M56.0938,386.6719 C55.1563,386.2344 54.5625,386.0938 53.6875,386.0938 C51.0625,386.0938 49.0625,388.1719 49.0625,390.8906 L49.0625,392.0156 C49.0625,394.5938 51.1719,396.4844 54.0625,396.4844 C55.2813,396.4844 56.4375,396.1875 57.1875,395.6406 C57.7656,395.2344 58.0938,394.7813 58.0938,394.3906 C58.0938,393.9375 57.7031,393.5469 57.2344,393.5469 C57.0156,393.5469 56.8125,393.625 56.625,393.8125 C56.1719,394.2969 56.1719,394.2969 55.9844,394.3906 C55.5625,394.6563 54.875,394.7813 54.1094,394.7813 C52.0625,394.7813 50.7656,393.6875 50.7656,391.9844 L50.7656,390.8906 C50.7656,389.1094 52.0156,387.7969 53.75,387.7969 C54.3281,387.7969 54.9375,387.9531 55.4063,388.2031 C55.8906,388.4844 56.0625,388.7031 56.1563,389.1094 C56.2188,389.5156 56.25,389.6406 56.3906,389.7656 C56.5313,389.9063 56.7656,390.0156 56.9844,390.0156 C57.25,390.0156 57.5156,389.875 57.6875,389.6563 C57.7969,389.5 57.8281,389.3125 57.8281,388.8906 L57.8281,387.4688 C57.8281,387.0313 57.8125,386.9063 57.7188,386.75 C57.5625,386.4844 57.2813,386.3438 56.9844,386.3438 C56.6875,386.3438 56.4844,386.4375 56.2656,386.75 L56.0938,386.6719 Z " fill="#000000"/><text fill="#000000" font-family="sans-serif" font-size="14" lengthAdjust="spacing" textLength="39" x="74.25" y="395.8467">Label</text><line style="stroke:#181818;stroke-width:0.5;" x1="8" x2="147" y1="407" y2="407"/><rect fill="none" height="6" style="stroke:#C82930;stroke-width:1.0;" width="6" x="15" y="417.6484"/><text fill="#000000" font-family="sans-serif" font-size="14" lengthAdjust="spacing" textLength="60" x="27" y="423.9951">text: str</text><line style="stroke:#181818;stroke-width:0.5;" x1="8" x2="147" y1="431.2969" y2="431.2969"/><ellipse cx="18" cy="444.9453" fill="#84BE84" rx="3" ry="3" style="stroke:#038048;stroke-width:1.0;"/><text fill="#000000" font-family="sans-serif" font-size="14" lengthAdjust="spacing" textLength="115" x="27" y="448.292">config(text: str)</text><ellipse cx="18" cy="461.2422" fill="#84BE84" rx="3" ry="3" style="stroke:#038048;stroke-width:1.0;"/><text fill="#000000" font-family="sans-serif" font-size="14" lengthAdjust="spacing" textLength="65" x="27" y="464.5889">destroy()</text></g><!--class Canvas--><g id="elem_Canvas"><rect codeLine="27" fill="#F1F1F1" height="129.4844" id="Canvas" rx="2.5" ry="2.5" style="stroke:#181818;stroke-width:0.5;" width="407" x="183" y="359"/><ellipse cx="357.25" cy="375" fill="#ADD1B2" rx="11" ry="11" style="stroke:#181818;stroke-width:1.0;"/><path d="M359.5938,370.6719 C358.6563,370.2344 358.0625,370.0938 357.1875,370.0938 C354.5625,370.0938 352.5625,372.1719 352.5625,374.8906 L352.5625,376.0156 C352.5625,378.5938 354.6719,380.4844 357.5625,380.4844 C358.7813,380.4844 359.9375,380.1875 360.6875,379.6406 C361.2656,379.2344 361.5938,378.7813 361.5938,378.3906 C361.5938,377.9375 361.2031,377.5469 360.7344,377.5469 C360.5156,377.5469 360.3125,377.625 360.125,377.8125 C359.6719,378.2969 359.6719,378.2969 359.4844,378.3906 C359.0625,378.6563 358.375,378.7813 357.6094,378.7813 C355.5625,378.7813 354.2656,377.6875 354.2656,375.9844 L354.2656,374.8906 C354.2656,373.1094 355.5156,371.7969 357.25,371.7969 C357.8281,371.7969 358.4375,371.9531 358.9063,372.2031 C359.3906,372.4844 359.5625,372.7031 359.6563,373.1094 C359.7188,373.5156 359.75,373.6406 359.8906,373.7656 C360.0313,373.9063 360.2656,374.0156 360.4844,374.0156 C360.75,374.0156 361.0156,373.875 361.1875,373.6563 C361.2969,373.5 361.3281,373.3125 361.3281,372.8906 L361.3281,371.4688 C361.3281,371.0313 361.3125,370.9063 361.2188,370.75 C361.0625,370.4844 360.7813,370.3438 360.4844,370.3438 C360.1875,370.3438 359.9844,370.4375 359.7656,370.75 L359.5938,370.6719 Z " fill="#000000"/><text fill="#000000" font-family="sans-serif" font-size="14" lengthAdjust="spacing" textLength="50" x="377.75" y="379.8467">Canvas</text><line style="stroke:#181818;stroke-width:0.5;" x1="184" x2="589" y1="391" y2="391"/><rect fill="none" height="6" style="stroke:#C82930;stroke-width:1.0;" width="6" x="191" y="401.6484"/><text fill="#000000" font-family="sans-serif" font-size="14" lengthAdjust="spacing" textLength="69" x="203" y="407.9951">width: int</text><rect fill="none" height="6" style="stroke:#C82930;stroke-width:1.0;" width="6" x="191" y="417.9453"/><text fill="#000000" font-family="sans-serif" font-size="14" lengthAdjust="spacing" textLength="76" x="203" y="424.292">height: int</text><line style="stroke:#181818;stroke-width:0.5;" x1="184" x2="589" y1="431.5938" y2="431.5938"/><ellipse cx="194" cy="445.2422" fill="#84BE84" rx="3" ry="3" style="stroke:#038048;stroke-width:1.0;"/><text fill="#000000" font-family="sans-serif" font-size="14" lengthAdjust="spacing" textLength="381" x="203" y="448.5889">create_image(x: int, y: int, anchor: str, image: Image)</text><ellipse cx="194" cy="461.5391" fill="#84BE84" rx="3" ry="3" style="stroke:#038048;stroke-width:1.0;"/><text fill="#000000" font-family="sans-serif" font-size="14" lengthAdjust="spacing" textLength="288" x="203" y="464.8857">create_polygon(points: List[int], fill: str)</text><ellipse cx="194" cy="477.8359" fill="#84BE84" rx="3" ry="3" style="stroke:#038048;stroke-width:1.0;"/><text fill="#000000" font-family="sans-serif" font-size="14" lengthAdjust="spacing" textLength="292" x="203" y="481.1826">coords(object: Object, *coordinates: int)</text></g><!--class Frame--><g id="elem_Frame"><rect codeLine="36" fill="#F1F1F1" height="80.5938" id="Frame" rx="2.5" ry="2.5" style="stroke:#181818;stroke-width:0.5;" width="309" x="625" y="383"/><ellipse cx="752.75" cy="399" fill="#ADD1B2" rx="11" ry="11" style="stroke:#181818;stroke-width:1.0;"/><path d="M755.0938,394.6719 C754.1563,394.2344 753.5625,394.0938 752.6875,394.0938 C750.0625,394.0938 748.0625,396.1719 748.0625,398.8906 L748.0625,400.0156 C748.0625,402.5938 750.1719,404.4844 753.0625,404.4844 C754.2813,404.4844 755.4375,404.1875 756.1875,403.6406 C756.7656,403.2344 757.0938,402.7813 757.0938,402.3906 C757.0938,401.9375 756.7031,401.5469 756.2344,401.5469 C756.0156,401.5469 755.8125,401.625 755.625,401.8125 C755.1719,402.2969 755.1719,402.2969 754.9844,402.3906 C754.5625,402.6563 753.875,402.7813 753.1094,402.7813 C751.0625,402.7813 749.7656,401.6875 749.7656,399.9844 L749.7656,398.8906 C749.7656,397.1094 751.0156,395.7969 752.75,395.7969 C753.3281,395.7969 753.9375,395.9531 754.4063,396.2031 C754.8906,396.4844 755.0625,396.7031 755.1563,397.1094 C755.2188,397.5156 755.25,397.6406 755.3906,397.7656 C755.5313,397.9063 755.7656,398.0156 755.9844,398.0156 C756.25,398.0156 756.5156,397.875 756.6875,397.6563 C756.7969,397.5 756.8281,397.3125 756.8281,396.8906 L756.8281,395.4688 C756.8281,395.0313 756.8125,394.9063 756.7188,394.75 C756.5625,394.4844 756.2813,394.3438 755.9844,394.3438 C755.6875,394.3438 755.4844,394.4375 755.2656,394.75 L755.0938,394.6719 Z " fill="#000000"/><text fill="#000000" font-family="sans-serif" font-size="14" lengthAdjust="spacing" textLength="45" x="773.25" y="403.8467">Frame</text><line style="stroke:#181818;stroke-width:0.5;" x1="626" x2="933" y1="415" y2="415"/><rect fill="none" height="6" style="stroke:#C82930;stroke-width:1.0;" width="6" x="633" y="425.6484"/><text fill="#000000" font-family="sans-serif" font-size="14" lengthAdjust="spacing" textLength="48" x="645" y="431.9951">bg: str</text><line style="stroke:#181818;stroke-width:0.5;" x1="626" x2="933" y1="439.2969" y2="439.2969"/><ellipse cx="636" cy="452.9453" fill="#84BE84" rx="3" ry="3" style="stroke:#038048;stroke-width:1.0;"/><text fill="#000000" font-family="sans-serif" font-size="14" lengthAdjust="spacing" textLength="283" x="645" y="456.292">place(relx: float, rely: float, anchor: str)</text></g><!--class Button--><g id="elem_Button"><rect codeLine="42" fill="#F1F1F1" height="80.5938" id="Button" rx="2.5" ry="2.5" style="stroke:#181818;stroke-width:0.5;" width="129" x="969" y="383"/><ellipse cx="1005.15" cy="399" fill="#ADD1B2" rx="11" ry="11" style="stroke:#181818;stroke-width:1.0;"/><path d="M1007.4938,394.6719 C1006.5563,394.2344 1005.9625,394.0938 1005.0875,394.0938 C1002.4625,394.0938 1000.4625,396.1719 1000.4625,398.8906 L1000.4625,400.0156 C1000.4625,402.5938 1002.5719,404.4844 1005.4625,404.4844 C1006.6813,404.4844 1007.8375,404.1875 1008.5875,403.6406 C1009.1656,403.2344 1009.4938,402.7813 1009.4938,402.3906 C1009.4938,401.9375 1009.1031,401.5469 1008.6344,401.5469 C1008.4156,401.5469 1008.2125,401.625 1008.025,401.8125 C1007.5719,402.2969 1007.5719,402.2969 1007.3844,402.3906 C1006.9625,402.6563 1006.275,402.7813 1005.5094,402.7813 C1003.4625,402.7813 1002.1656,401.6875 1002.1656,399.9844 L1002.1656,398.8906 C1002.1656,397.1094 1003.4156,395.7969 1005.15,395.7969 C1005.7281,395.7969 1006.3375,395.9531 1006.8063,396.2031 C1007.2906,396.4844 1007.4625,396.7031 1007.5563,397.1094 C1007.6188,397.5156 1007.65,397.6406 1007.7906,397.7656 C1007.9313,397.9063 1008.1656,398.0156 1008.3844,398.0156 C1008.65,398.0156 1008.9156,397.875 1009.0875,397.6563 C1009.1969,397.5 1009.2281,397.3125 1009.2281,396.8906 L1009.2281,395.4688 C1009.2281,395.0313 1009.2125,394.9063 1009.1188,394.75 C1008.9625,394.4844 1008.6813,394.3438 1008.3844,394.3438 C1008.0875,394.3438 1007.8844,394.4375 1007.6656,394.75 L1007.4938,394.6719 Z " fill="#000000"/><text fill="#000000" font-family="sans-serif" font-size="14" lengthAdjust="spacing" textLength="50" x="1023.85" y="403.8467">Button</text><line style="stroke:#181818;stroke-width:0.5;" x1="970" x2="1097" y1="415" y2="415"/><rect fill="none" height="6" style="stroke:#C82930;stroke-width:1.0;" width="6" x="977" y="425.6484"/><text fill="#000000" font-family="sans-serif" font-size="14" lengthAdjust="spacing" textLength="60" x="989" y="431.9951">text: str</text><line style="stroke:#181818;stroke-width:0.5;" x1="970" x2="1097" y1="439.2969" y2="439.2969"/><ellipse cx="980" cy="452.9453" fill="#84BE84" rx="3" ry="3" style="stroke:#038048;stroke-width:1.0;"/><text fill="#000000" font-family="sans-serif" font-size="14" lengthAdjust="spacing" textLength="103" x="989" y="456.292">pack(side: str)</text></g><!--class Entry--><g id="elem_Entry"><rect codeLine="48" fill="#F1F1F1" height="48" id="Entry" rx="2.5" ry="2.5" style="stroke:#181818;stroke-width:0.5;" width="71" x="1133" y="399.5"/><ellipse cx="1148" cy="415.5" fill="#ADD1B2" rx="11" ry="11" style="stroke:#181818;stroke-width:1.0;"/><path d="M1150.3438,411.1719 C1149.4063,410.7344 1148.8125,410.5938 1147.9375,410.5938 C1145.3125,410.5938 1143.3125,412.6719 1143.3125,415.3906 L1143.3125,416.5156 C1143.3125,419.0938 1145.4219,420.9844 1148.3125,420.9844 C1149.5313,420.9844 1150.6875,420.6875 1151.4375,420.1406 C1152.0156,419.7344 1152.3438,419.2813 1152.3438,418.8906 C1152.3438,418.4375 1151.9531,418.0469 1151.4844,418.0469 C1151.2656,418.0469 1151.0625,418.125 1150.875,418.3125 C1150.4219,418.7969 1150.4219,418.7969 1150.2344,418.8906 C1149.8125,419.1563 1149.125,419.2813 1148.3594,419.2813 C1146.3125,419.2813 1145.0156,418.1875 1145.0156,416.4844 L1145.0156,415.3906 C1145.0156,413.6094 1146.2656,412.2969 1148,412.2969 C1148.5781,412.2969 1149.1875,412.4531 1149.6563,412.7031 C1150.1406,412.9844 1150.3125,413.2031 1150.4063,413.6094 C1150.4688,414.0156 1150.5,414.1406 1150.6406,414.2656 C1150.7813,414.4063 1151.0156,414.5156 1151.2344,414.5156 C1151.5,414.5156 1151.7656,414.375 1151.9375,414.1563 C1152.0469,414 1152.0781,413.8125 1152.0781,413.3906 L1152.0781,411.9688 C1152.0781,411.5313 1152.0625,411.4063 1151.9688,411.25 C1151.8125,410.9844 1151.5313,410.8438 1151.2344,410.8438 C1150.9375,410.8438 1150.7344,410.9375 1150.5156,411.25 L1150.3438,411.1719 Z " fill="#000000"/><text fill="#000000" font-family="sans-serif" font-size="14" lengthAdjust="spacing" textLength="39" x="1162" y="420.3467">Entry</text><line style="stroke:#181818;stroke-width:0.5;" x1="1134" x2="1203" y1="431.5" y2="431.5"/><line style="stroke:#181818;stroke-width:0.5;" x1="1134" x2="1203" y1="439.5" y2="439.5"/></g><!--class PhotoImage--><g id="elem_PhotoImage"><rect codeLine="50" fill="#F1F1F1" height="64.2969" id="PhotoImage" rx="2.5" ry="2.5" style="stroke:#181818;stroke-width:0.5;" width="119" x="1239" y="391.5"/><ellipse cx="1254" cy="407.5" fill="#ADD1B2" rx="11" ry="11" style="stroke:#181818;stroke-width:1.0;"/><path d="M1256.3438,403.1719 C1255.4063,402.7344 1254.8125,402.5938 1253.9375,402.5938 C1251.3125,402.5938 1249.3125,404.6719 1249.3125,407.3906 L1249.3125,408.5156 C1249.3125,411.0938 1251.4219,412.9844 1254.3125,412.9844 C1255.5313,412.9844 1256.6875,412.6875 1257.4375,412.1406 C1258.0156,411.7344 1258.3438,411.2813 1258.3438,410.8906 C1258.3438,410.4375 1257.9531,410.0469 1257.4844,410.0469 C1257.2656,410.0469 1257.0625,410.125 1256.875,410.3125 C1256.4219,410.7969 1256.4219,410.7969 1256.2344,410.8906 C1255.8125,411.1563 1255.125,411.2813 1254.3594,411.2813 C1252.3125,411.2813 1251.0156,410.1875 1251.0156,408.4844 L1251.0156,407.3906 C1251.0156,405.6094 1252.2656,404.2969 1254,404.2969 C1254.5781,404.2969 1255.1875,404.4531 1255.6563,404.7031 C1256.1406,404.9844 1256.3125,405.2031 1256.4063,405.6094 C1256.4688,406.0156 1256.5,406.1406 1256.6406,406.2656 C1256.7813,406.4063 1257.0156,406.5156 1257.2344,406.5156 C1257.5,406.5156 1257.7656,406.375 1257.9375,406.1563 C1258.0469,406 1258.0781,405.8125 1258.0781,405.3906 L1258.0781,403.9688 C1258.0781,403.5313 1258.0625,403.4063 1257.9688,403.25 C1257.8125,402.9844 1257.5313,402.8438 1257.2344,402.8438 C1256.9375,402.8438 1256.7344,402.9375 1256.5156,403.25 L1256.3438,403.1719 Z " fill="#000000"/><text fill="#000000" font-family="sans-serif" font-size="14" lengthAdjust="spacing" textLength="87" x="1268" y="412.3467">PhotoImage</text><line style="stroke:#181818;stroke-width:0.5;" x1="1240" x2="1357" y1="423.5" y2="423.5"/><rect fill="none" height="6" style="stroke:#C82930;stroke-width:1.0;" width="6" x="1247" y="434.1484"/><text fill="#000000" font-family="sans-serif" font-size="14" lengthAdjust="spacing" textLength="52" x="1259" y="440.4951">file: str</text><line style="stroke:#181818;stroke-width:0.5;" x1="1240" x2="1357" y1="447.7969" y2="447.7969"/></g><!--class Tk--><g id="elem_Tk"><rect codeLine="54" fill="#F1F1F1" height="113.1875" id="Tk" rx="2.5" ry="2.5" style="stroke:#181818;stroke-width:0.5;" width="132" x="1393.5" y="367"/><ellipse cx="1446.25" cy="383" fill="#ADD1B2" rx="11" ry="11" style="stroke:#181818;stroke-width:1.0;"/><path d="M1448.5938,378.6719 C1447.6563,378.2344 1447.0625,378.0938 1446.1875,378.0938 C1443.5625,378.0938 1441.5625,380.1719 1441.5625,382.8906 L1441.5625,384.0156 C1441.5625,386.5938 1443.6719,388.4844 1446.5625,388.4844 C1447.7813,388.4844 1448.9375,388.1875 1449.6875,387.6406 C1450.2656,387.2344 1450.5938,386.7813 1450.5938,386.3906 C1450.5938,385.9375 1450.2031,385.5469 1449.7344,385.5469 C1449.5156,385.5469 1449.3125,385.625 1449.125,385.8125 C1448.6719,386.2969 1448.6719,386.2969 1448.4844,386.3906 C1448.0625,386.6563 1447.375,386.7813 1446.6094,386.7813 C1444.5625,386.7813 1443.2656,385.6875 1443.2656,383.9844 L1443.2656,382.8906 C1443.2656,381.1094 1444.5156,379.7969 1446.25,379.7969 C1446.8281,379.7969 1447.4375,379.9531 1447.9063,380.2031 C1448.3906,380.4844 1448.5625,380.7031 1448.6563,381.1094 C1448.7188,381.5156 1448.75,381.6406 1448.8906,381.7656 C1449.0313,381.9063 1449.2656,382.0156 1449.4844,382.0156 C1449.75,382.0156 1450.0156,381.875 1450.1875,381.6563 C1450.2969,381.5 1450.3281,381.3125 1450.3281,380.8906 L1450.3281,379.4688 C1450.3281,379.0313 1450.3125,378.9063 1450.2188,378.75 C1450.0625,378.4844 1449.7813,378.3438 1449.4844,378.3438 C1449.1875,378.3438 1448.9844,378.4375 1448.7656,378.75 L1448.5938,378.6719 Z " fill="#000000"/><text fill="#000000" font-family="sans-serif" font-size="14" lengthAdjust="spacing" textLength="18" x="1466.75" y="387.8467">Tk</text><line style="stroke:#181818;stroke-width:0.5;" x1="1394.5" x2="1524.5" y1="399" y2="399"/><rect fill="none" height="6" style="stroke:#C82930;stroke-width:1.0;" width="6" x="1401.5" y="409.6484"/><text fill="#000000" font-family="sans-serif" font-size="14" lengthAdjust="spacing" textLength="60" x="1413.5" y="415.9951">title: str</text><rect fill="none" height="6" style="stroke:#C82930;stroke-width:1.0;" width="6" x="1401.5" y="425.9453"/><text fill="#000000" font-family="sans-serif" font-size="14" lengthAdjust="spacing" textLength="100" x="1413.5" y="432.292">geometry: str</text><rect fill="none" height="6" style="stroke:#C82930;stroke-width:1.0;" width="6" x="1401.5" y="442.2422"/><text fill="#000000" font-family="sans-serif" font-size="14" lengthAdjust="spacing" textLength="106" x="1413.5" y="448.5889">resizable: bool</text><line style="stroke:#181818;stroke-width:0.5;" x1="1394.5" x2="1524.5" y1="455.8906" y2="455.8906"/><ellipse cx="1404.5" cy="469.5391" fill="#84BE84" rx="3" ry="3" style="stroke:#038048;stroke-width:1.0;"/><text fill="#000000" font-family="sans-serif" font-size="14" lengthAdjust="spacing" textLength="77" x="1413.5" y="472.8857">mainloop()</text></g><!--link BmiCalculator to Label--><g id="link_BmiCalculator_Label"><path codeLine="62" d="M808.483,182.336 C628.442,210.778 372.713,264.344 165.5,359 C157.403,362.699 149.297,367.195 141.461,372.069 " fill="none" id="BmiCalculator-to-Label" style="stroke:#181818;stroke-width:1.0;"/><polygon fill="#181818" points="137.138,374.813,146.8806,373.3701,141.3602,372.1348,142.5955,366.6145,137.138,374.813" style="stroke:#181818;stroke-width:1.0;"/><text fill="#000000" font-family="sans-serif" font-size="13" lengthAdjust="spacing" textLength="8" x="792.2527" y="180.1819">1</text><text fill="#000000" font-family="sans-serif" font-size="13" lengthAdjust="spacing" textLength="7" x="138.0324" y="363.9956">*</text></g><!--link BmiCalculator to Canvas--><g id="link_BmiCalculator_Canvas"><path codeLine="63" d="M808.119,247.531 C721.229,283.59 623.908,323.977 544.679,356.857 " fill="none" id="BmiCalculator-to-Canvas" style="stroke:#181818;stroke-width:1.0;"/><polygon fill="#181818" points="539.966,358.813,549.8118,359.057,544.584,356.8961,546.7448,351.6682,539.966,358.813" style="stroke:#181818;stroke-width:1.0;"/><text fill="#000000" font-family="sans-serif" font-size="13" lengthAdjust="spacing" textLength="8" x="792.5924" y="247.4483">1</text><text fill="#000000" font-family="sans-serif" font-size="13" lengthAdjust="spacing" textLength="8" x="548.3138" y="347.9652">1</text></g><!--link BmiCalculator to Frame--><g id="link_BmiCalculator_Frame"><path codeLine="64" d="M896.092,299.252 C868.468,328.453 841.505,356.956 820.478,379.183 " fill="none" id="BmiCalculator-to-Frame" style="stroke:#181818;stroke-width:1.0;"/><polygon fill="#181818" points="816.889,382.977,825.98,379.1883,820.3253,379.3449,820.1687,373.6903,816.889,382.977" style="stroke:#181818;stroke-width:1.0;"/><text fill="#000000" font-family="sans-serif" font-size="13" lengthAdjust="spacing" textLength="8" x="880.3588" y="319.7184">1</text><text fill="#000000" font-family="sans-serif" font-size="13" lengthAdjust="spacing" textLength="8" x="814.6277" y="371.8363">1</text></g><!--link BmiCalculator to Button--><g id="link_BmiCalculator_Button"><path codeLine="65" d="M1033.5,299.252 C1033.5,327.85 1033.5,355.778 1033.5,377.797 " fill="none" id="BmiCalculator-to-Button" style="stroke:#181818;stroke-width:1.0;"/><polygon fill="#181818" points="1033.5,382.977,1037.5,373.977,1033.5,377.977,1029.5,373.977,1033.5,382.977" style="stroke:#181818;stroke-width:1.0;"/><text fill="#000000" font-family="sans-serif" font-size="13" lengthAdjust="spacing" textLength="8" x="1025.2813" y="319.7184">1</text><text fill="#000000" font-family="sans-serif" font-size="13" lengthAdjust="spacing" textLength="7" x="1025.8984" y="371.8363">*</text></g><!--link BmiCalculator to Entry--><g id="link_BmiCalculator_Entry"><path codeLine="66" d="M1106.53,299.252 C1124.94,335.857 1142.79,371.365 1154.57,394.7893 " fill="none" id="BmiCalculator-to-Entry" style="stroke:#181818;stroke-width:1.0;"/><polygon fill="#181818" points="1156.84,399.3099,1156.3744,389.4721,1154.5956,394.8419,1149.2257,393.0631,1156.84,399.3099" style="stroke:#181818;stroke-width:1.0;"/><text fill="#000000" font-family="sans-serif" font-size="13" lengthAdjust="spacing" textLength="8" x="1102.3051" y="319.7184">1</text><text fill="#000000" font-family="sans-serif" font-size="13" lengthAdjust="spacing" textLength="8" x="1144.8271" y="388.2733">1</text></g><!--link BmiCalculator to PhotoImage--><g id="link_BmiCalculator_PhotoImage"><path codeLine="67" d="M1176.86,299.252 C1209.5,332.327 1241.26,364.506 1264.14,387.685 " fill="none" id="BmiCalculator-to-PhotoImage" style="stroke:#181818;stroke-width:1.0;"/><polygon fill="#181818" points="1267.73,391.3264,1264.2706,382.1051,1264.2238,387.7618,1258.5672,387.715,1267.73,391.3264" style="stroke:#181818;stroke-width:1.0;"/><text fill="#000000" font-family="sans-serif" font-size="13" lengthAdjust="spacing" textLength="8" x="1176.4812" y="319.7184">1</text><text fill="#000000" font-family="sans-serif" font-size="13" lengthAdjust="spacing" textLength="8" x="1252.5587" y="380.1932">1</text></g><!--link BmiCalculator to Tk--><g id="link_BmiCalculator_Tk"><path codeLine="68" d="M1258.72,284.309 C1298.11,308.422 1338.35,333.927 1375.5,359 C1380.02,362.054 1384.64,365.259 1389.25,368.538 " fill="none" id="BmiCalculator-to-Tk" style="stroke:#181818;stroke-width:1.0;"/><polygon fill="#181818" points="1393.49,371.569,1388.4843,363.0871,1389.4189,368.6662,1383.8398,369.6008,1393.49,371.569" style="stroke:#181818;stroke-width:1.0;"/><text fill="#000000" font-family="sans-serif" font-size="13" lengthAdjust="spacing" textLength="8" x="1266.2413" y="285.4331">1</text><text fill="#000000" font-family="sans-serif" font-size="13" lengthAdjust="spacing" textLength="8" x="1377.3951" y="361.761">1</text></g><!--SRC=[VLEnRjmm3DtlAuIRdDGtTBsXGu8ME210EsGh2aEMUJPhMNGbNN9kq7-lBCcswaizINma7yadIaXk37ley95BSP7SacPlEyOEx1MmRcpHraTsbiIj1vi0TYaM0sLfteb4bO8Qp4MwK5w2FBAdyTWvnmVMWTKeJ24aYXQgxCwZsFMWaSiLx5Z0hh1V5rn38au4nSHUTdZZcsiipWfDB_bGX6upvuWp17T7Br1mhUdrnkLqB1OXfxfPK2X6vb6QAN7HvoR_57kB1ASLmsbDyMUt4_uzlRBn7IrSNIrZTL1Qa3fZdSre71dSbGOdmCpnoDKBDzCoO6MR8qELFcwm0wk682Ql8RjwHyw6U78b6jA-Mivyo96TnkCkpUr93ZMfh2UNv5Rf2Otzxgu_SdP6APDc1P6kJ4RbJn2kYQ_-pDcznr4vCkCh9yDyqRo3E4jP9tAuXnQGQP3NMLnd3BEHz9xGFLoi9VM-m3qNRMQmWdNIPsNrmDvc-rj3bhmEaSYD6PAMdETsAe9sSevc3JGkrx0WRbdnDo_7e99e-bOSbIJgmxl- -ylt7_ViSFZ4zlVx-1F_utTds8MD0A_lHe4Ws0Q15sV3luYr4VJS_WK0]--></g></svg>